<svg id="visual" viewBox="0 0 960 540" width="960" height="540" xmlns="http://www.w3.org/2000/svg" xmlns:xlink="http://www.w3.org/1999/xlink" version="1.1"><rect x="0" y="0" width="960" height="540" fill="#18191b"></rect><g fill="#111"><circle r="45" cx="857" cy="280"></circle><circle r="17" cx="60" cy="502"></circle><circle r="21" cx="234" cy="71"></circle><circle r="40" cx="5" cy="188"></circle><circle r="25" cx="494" cy="111"></circle><circle r="19" cx="928" cy="392"></circle><circle r="18" cx="772" cy="180"></circle><circle r="31" cx="892" cy="78"></circle><circle r="20" cx="654" cy="275"></circle><circle r="42" cx="193" cy="498"></circle><circle r="22" cx="321" cy="292"></circle><circle r="28" cx="196" cy="263"></circle><circle r="30" cx="894" cy="483"></circle><circle r="38" cx="503" cy="351"></circle><circle r="31" cx="100" cy="13"></circle><circle r="22" cx="350" cy="449"></circle><circle r="39" cx="743" cy="419"></circle><circle r="35" cx="668" cy="84"></circle><circle r="17" cx="419" cy="206"></circle><circle r="42" cx="434" cy="489"></circle><circle r="23" cx="640" cy="474"></circle><circle r="23" cx="109" cy="348"></circle><circle r="24" cx="5" cy="95"></circle><circle r="21" cx="140" cy="151"></circle><circle r="16" cx="567" cy="13"></circle><circle r="31" cx="894" cy="168"></circle><circle r="29" cx="417" cy="63"></circle><circle r="23" cx="550" cy="251"></circle><circle r="26" cx="763" cy="67"></circle></g></svg>